<svg xmlns="http://www.w3.org/2000/svg" id="Layer_1" data-name="Layer 1" viewBox="0 0 226.29 95.91"><defs><style>.cls-1,.cls-2{fill:#020202;}.cls-2{font-size:12px;font-family:Calibri;}</style></defs><title>New iyris_logo_simple</title><path class="cls-1" d="M1,19.4h9.8V70.1H1ZM1,4.9A4.92,4.92,0,0,1,2.4,1.5a4.6,4.6,0,0,1,6.5-.3q.15.14.3.3a4.42,4.42,0,0,1,1.6,3.4A4.92,4.92,0,0,1,9.4,8.3,4.83,4.83,0,0,1,5.9,9.8,4.63,4.63,0,0,1,2.5,8.3,4.63,4.63,0,0,1,1,4.9Z" transform="translate(-1 0)"></path><path class="cls-1" d="M131.5,19.4h9.8V70.1h-9.8Zm0-14.5a4.92,4.92,0,0,1,1.4-3.4,4.6,4.6,0,0,1,6.5-.3q.15.14.3.3a4.53,4.53,0,0,1,1.4,3.4,4.92,4.92,0,0,1-1.4,3.4,4.31,4.31,0,0,1-3.4,1.5,4.45,4.45,0,0,1-3.4-1.5A4.92,4.92,0,0,1,131.5,4.9Z" transform="translate(-1 0)"></path><path class="cls-1" d="M73.9,86.8a11.77,11.77,0,0,1-3.9-.6,8.29,8.29,0,0,1-2.7-1.7,11.55,11.55,0,0,1-1.9-2.7A27.93,27.93,0,0,1,64,78.4l-3.1-8L82,19.4H70.7L55.5,58.9h-.2L46,33.7h0c0-.1-.1-.2-.1-.4l-1.6-4.2a14.87,14.87,0,0,0-12.9-9.6,17.52,17.52,0,0,0-2.4-.1c-1.4,0-2.8.1-4.2.2a11.51,11.51,0,0,0-4.1,1.1l1.2,8.6a16.13,16.13,0,0,1,5.7-1.1,10.15,10.15,0,0,1,3.7.6A9.4,9.4,0,0,1,34,30.5,11.34,11.34,0,0,1,35.8,33c.2.4.4.8.6,1.3L55,81.1c.8,2.2,1.8,4.2,2.7,6.1a18.47,18.47,0,0,0,3.4,4.6,13.39,13.39,0,0,0,4.7,3,19,19,0,0,0,6.8,1.1c1.4,0,2.9-.1,4.3-.2a15.58,15.58,0,0,0,4.2-1.1l-1.2-8.7A27.62,27.62,0,0,1,73.9,86.8Z" transform="translate(-1 0)"></path><path class="cls-1" d="M90.5,19.4h9.8v7.8h.2a13.08,13.08,0,0,1,2.7-3.6,16.05,16.05,0,0,1,3.6-2.8,16.4,16.4,0,0,1,4.3-1.8,15.59,15.59,0,0,1,4.8-.7,14.19,14.19,0,0,1,4.3.6l-.5,10.3a21.75,21.75,0,0,0-2.4-.5,19.42,19.42,0,0,0-2.4-.2c-4.8,0-8.5,1.3-11,4s-3.7,6.8-3.7,12.2V70.2H90.4V19.4Z" transform="translate(-1 0)"></path><path class="cls-1" d="M184.1,32.1a13.23,13.23,0,0,0-4.2-3.6,11.94,11.94,0,0,0-6.3-1.5,11.66,11.66,0,0,0-6,1.5,4.61,4.61,0,0,0-2.5,4.2,4.89,4.89,0,0,0,1.4,3.6,11.8,11.8,0,0,0,3.5,2.3,20.63,20.63,0,0,0,4.2,1.3c1.6.2,2.8.5,3.9.7a46.18,46.18,0,0,1,5.9,1.8,18.92,18.92,0,0,1,4.8,2.8,11.47,11.47,0,0,1,3.1,4.1,15.08,15.08,0,0,1,1.1,5.9,13.91,13.91,0,0,1-1.8,7.3,15.39,15.39,0,0,1-4.8,5,22.76,22.76,0,0,1-6.6,2.8,32.09,32.09,0,0,1-7.5.8,29.94,29.94,0,0,1-11.2-1.9,20.08,20.08,0,0,1-8.6-7l7.4-5.9a30,30,0,0,0,5.3,4.1,13.11,13.11,0,0,0,7.1,1.8,15.37,15.37,0,0,0,3.7-.4,12.41,12.41,0,0,0,3.4-1.2,6.16,6.16,0,0,0,2.4-2.1,4.8,4.8,0,0,0,1-2.8,5.24,5.24,0,0,0-1.3-3.5,7.14,7.14,0,0,0-3.3-2.2,26.68,26.68,0,0,0-4-1.3c-1.4-.4-2.7-.6-3.7-.8-2.1-.5-4.1-1.1-5.9-1.7a19.51,19.51,0,0,1-5-2.5,11.64,11.64,0,0,1-3.5-4.1,13.81,13.81,0,0,1-1.3-6.1,13.53,13.53,0,0,1,1.7-6.9,14.76,14.76,0,0,1,4.5-4.8,19.11,19.11,0,0,1,6.3-2.9,28.36,28.36,0,0,1,7.1-1,26.15,26.15,0,0,1,10,1.9,16.27,16.27,0,0,1,7.6,6.4Z" transform="translate(-1 0)"></path><text class="cls-2" transform="translate(197.01 18.4)">TM</text></svg>